<svg width="935" height="191" viewBox="0 0 935 191" fill="none" xmlns="http://www.w3.org/2000/svg">
<g clip-path="url(#clip0_98_32)">
<path d="M192.38 31.82V77.74C192.02 79.99 191.6 82.28 190.84 84.42C190.47 85.4 190.09 86.3 189.34 86.95C188.73 87.38 188.31 86.92 187.84 86.46C187.01 85.56 186.26 84.25 185.58 82.95C184.23 80.31 183 77.49 181.68 74.66C179.55 70.3 177.41 65.64 173.65 62.1C168.78 57.54 162.81 58.42 158.53 63.18C155.58 66.36 153.52 70.37 151.74 73.97C149.03 79.47 146.79 85.24 144 90.52C142.86 92.68 141.43 95.17 139.82 96.71C139.5 97.01 139.2 97.23 138.99 97.34C137.5 95.6 136.09 93.13 134.56 91.04C130.66 85.48 125.5 80.54 119.79 76.81C111.12 71.16 100.91 67.87 90.5402 67.66C67.7002 66.84 48.6502 83.75 38.3502 102.77C37.2902 104.83 36.0602 107.34 35.1802 109.49C34.2702 111.76 33.4602 114.13 32.7702 116.47C30.1702 125.2 29.7102 134.3 25.2202 142.25C19.8302 152.15 10.7702 159.24 0.350234 163.48C0.120234 161.92 -0.00976562 160.32 -0.00976562 158.69V31.82C0.000234375 14.25 14.2402 0 31.8102 0H160.56C178.13 0 192.37 14.25 192.37 31.82H192.38Z" fill="#8CA9D3"/>
<path d="M191.23 87.8299C191.98 86.5099 192.25 85.0399 192.37 83.5699V158.7C192.37 176.27 178.13 190.51 160.56 190.51H31.8104C16.0404 190.51 2.96043 179.04 0.44043 164C15.6204 161.33 29.1704 151.22 35.1704 136.83C38.1704 129.64 39.6204 122.23 42.9104 115.33C49.9304 100.14 65.3304 83.4699 82.3504 80.4699C95.4904 78.1599 109.84 82.9399 119.65 91.9499C122.81 94.7799 125.27 98.0599 127.82 101.6C129.04 103.24 130.1 104.69 131.89 106.17C136.79 110.22 143.52 108.85 147.56 104.31C150.24 101.4 151.75 98.3599 153.29 95.0199C155.86 89.1999 157.7 83.3299 159.91 77.5499C161.46 73.7899 162.85 69.8699 165.49 67.1499C166.81 65.8299 167.96 66.1599 169.41 67.1799C172.7 69.6999 175.04 73.4299 177.44 77.0099C179.57 80.1899 181.6 83.6799 184.18 86.6899C185.95 88.8499 189.13 91.0299 191.21 87.8099L191.23 87.8299Z" fill="#0A2065"/>
<path d="M297.86 142.14C282.89 142.14 270.95 138.94 262.05 132.55C253.14 126.16 248.28 117.28 247.45 105.92H271.42C272.25 111.82 274.98 116.27 279.62 119.27C284.26 122.27 290.66 123.76 298.84 123.76C306.09 123.76 311.56 122.62 315.23 120.34C318.9 118.06 320.74 114.68 320.74 110.21C320.74 106.72 319.57 103.95 317.23 101.89C314.89 99.83 311.1 98.27 305.87 97.19L282.87 92.63C272.49 90.48 264.73 86.93 259.59 81.96C254.45 77 251.88 70.54 251.88 62.58C251.88 52.47 255.81 44.56 263.66 38.84C271.51 33.12 282.19 30.25 295.69 30.25C309.19 30.25 320.39 33.25 328.75 39.24C337.1 45.23 341.79 53.59 342.8 64.33H318.83C316.17 53.42 308.04 47.96 294.45 47.96C288.3 47.96 283.48 49.03 279.99 51.18C276.5 53.33 274.76 56.41 274.76 60.44C274.76 66.61 279.31 70.59 288.4 72.38L312.37 77.21C323.2 79.36 331.12 82.96 336.13 88.01C341.13 93.06 343.64 99.88 343.64 108.47C343.64 119.11 339.67 127.39 331.73 133.29C323.79 139.19 312.51 142.14 297.91 142.14H297.86Z" fill="#8CA9D3"/>
<path d="M357.92 140.53V27.8501H380.79V88.8901H381.34L413.85 60.0501H441.12L406 90.9001L443.74 140.53H417.02L389.88 104.44L380.79 111.68V140.52H357.92V140.53Z" fill="#8CA9D3"/>
<path d="M463.29 52.1302C459.8 52.1302 456.84 50.9502 454.41 48.5802C451.98 46.2102 450.76 43.3302 450.76 39.9302C450.76 36.5302 451.98 33.6502 454.41 31.2802C456.84 28.9102 459.8 27.7202 463.29 27.7202C466.78 27.7202 469.74 28.9102 472.17 31.2802C474.6 33.6502 475.82 36.5302 475.82 39.9302C475.82 43.3302 474.6 46.2102 472.17 48.5802C469.74 50.9502 466.77 52.1302 463.29 52.1302ZM451.86 140.53V60.0402H474.73V140.53H451.86Z" fill="#8CA9D3"/>
<path d="M493.73 140.53V27.8501H516.6V140.53H493.73Z" fill="#8CA9D3"/>
<path d="M535.61 140.53V27.8501H558.48V140.53H535.61Z" fill="#8CA9D3"/>
<path d="M616.74 174.33C604.34 174.33 594.26 171.89 586.5 167.02C578.74 162.14 574.12 155.37 572.66 146.7H596.9C599.1 153.32 605.49 156.63 616.05 156.63C623.21 156.63 628.7 155.04 632.51 151.87C636.32 148.69 638.23 144.11 638.23 138.12V127.39H637.54C635.06 131.68 631.64 134.95 627.28 137.18C622.92 139.42 617.71 140.53 611.65 140.53C603.84 140.53 597.07 138.85 591.33 135.5C585.59 132.15 581.14 127.38 577.97 121.21C574.8 115.04 573.22 107.79 573.22 99.4802C573.22 86.9602 576.78 76.9902 583.89 69.5602C591.01 62.1402 600.76 58.4302 613.16 58.4302C620.14 58.4302 626.08 59.7302 631 62.3202C635.91 64.9102 639.84 68.5402 642.78 73.1902H648.57V60.0402H671.71V82.0402H660.42V138.38C660.42 149.83 656.65 158.68 649.13 164.94C641.6 171.2 630.81 174.33 616.76 174.33H616.74ZM617.29 121.21C623.63 121.21 628.58 119.51 632.17 116.11C635.75 112.71 637.54 108.06 637.54 102.16V96.5302C637.54 90.7202 635.73 86.1302 632.1 82.7802C628.47 79.4302 623.54 77.7502 617.29 77.7502C610.59 77.7502 605.37 79.6702 601.66 83.5202C597.94 87.3702 596.08 92.7302 596.08 99.6202C596.08 106.51 597.94 111.83 601.66 115.58C605.38 119.34 610.59 121.21 617.29 121.21Z" fill="#0A2065"/>
<path d="M692.77 140.53V82.0401H681.48V60.0401H704.62V75.8701H710.41C712.61 70.2401 716.1 66.0301 720.88 63.2601C725.65 60.4901 731.03 59.1001 737 59.1001H744.02V78.4201H736.03C728.87 78.4201 723.61 80.3901 720.26 84.3201C716.91 88.2601 715.23 93.4401 715.23 99.8801V140.53H692.78H692.77Z" fill="#0A2065"/>
<path d="M792.22 142.14C783.22 142.14 775.39 140.42 768.73 136.98C762.07 133.54 756.9 128.66 753.23 122.36C749.56 116.06 747.72 108.66 747.72 100.16C747.72 91.6604 749.53 84.2904 753.16 78.0304C756.79 71.7704 761.98 66.9404 768.73 63.5404C775.48 60.1404 783.35 58.4404 792.35 58.4404C801.35 58.4404 809.13 60.1404 815.7 63.5404C822.26 66.9404 827.36 71.7704 830.99 78.0304C834.62 84.2904 836.43 91.7104 836.43 100.3C836.43 108.89 834.64 116.2 831.06 122.5C827.48 128.8 822.36 133.66 815.7 137.05C809.04 140.45 801.21 142.15 792.21 142.15L792.22 142.14ZM792.22 122.82C799.11 122.82 804.39 120.79 808.06 116.72C811.73 112.65 813.57 107.13 813.57 100.15C813.57 93.1704 811.73 87.7004 808.06 83.7204C804.39 79.7404 799.11 77.7504 792.22 77.7504C785.33 77.7504 779.89 79.7404 776.17 83.7204C772.45 87.7004 770.59 93.1804 770.59 100.15C770.59 107.12 772.45 112.65 776.17 116.72C779.89 120.79 785.24 122.82 792.22 122.82Z" fill="#0A2065"/>
<path d="M890.02 142.14C881.02 142.14 873.19 140.42 866.53 136.98C859.87 133.54 854.7 128.66 851.03 122.36C847.36 116.06 845.52 108.66 845.52 100.16C845.52 91.6604 847.33 84.2904 850.96 78.0304C854.59 71.7704 859.78 66.9404 866.53 63.5404C873.28 60.1404 881.15 58.4404 890.15 58.4404C899.15 58.4404 906.93 60.1404 913.5 63.5404C920.06 66.9404 925.16 71.7704 928.79 78.0304C932.42 84.2904 934.23 91.7104 934.23 100.3C934.23 108.89 932.44 116.2 928.86 122.5C925.28 128.8 920.16 133.66 913.5 137.05C906.84 140.45 899.01 142.15 890.01 142.15L890.02 142.14ZM890.02 122.82C896.91 122.82 902.19 120.79 905.86 116.72C909.53 112.65 911.37 107.13 911.37 100.15C911.37 93.1704 909.53 87.7004 905.86 83.7204C902.19 79.7404 896.91 77.7504 890.02 77.7504C883.13 77.7504 877.69 79.7404 873.97 83.7204C870.25 87.7004 868.39 93.1804 868.39 100.15C868.39 107.12 870.25 112.65 873.97 116.72C877.69 120.79 883.04 122.82 890.02 122.82Z" fill="#0A2065"/>
</g>
<defs>
<clipPath id="clip0_98_32">
<rect width="934.23" height="190.51" fill="white"/>
</clipPath>
</defs>
</svg>
