<?xml version="1.0" encoding="UTF-8"?>
<svg id="Layer_2" data-name="Layer 2" xmlns="http://www.w3.org/2000/svg" viewBox="0 0 934.23 190.51">
  <defs>
    <style>
      .cls-1 {
        fill: #8ca9d3;
      }

      .cls-2 {
        fill: #fff;
      }
    </style>
  </defs>
  <g id="Layer_1-2" data-name="Layer 1">
    <g>
      <g>
        <path class="cls-1" d="M192.38,31.82v45.92c-.36,2.25-.78,4.54-1.54,6.68-.37.98-.75,1.88-1.5,2.53-.61.43-1.03-.03-1.5-.49-.83-.9-1.58-2.21-2.26-3.51-1.35-2.64-2.58-5.46-3.9-8.29-2.13-4.36-4.27-9.02-8.03-12.56-4.87-4.56-10.84-3.68-15.12,1.08-2.95,3.18-5.01,7.19-6.79,10.79-2.71,5.5-4.95,11.27-7.74,16.55-1.14,2.16-2.57,4.65-4.18,6.19-.32.3-.62.52-.83.63-1.49-1.74-2.9-4.21-4.43-6.3-3.9-5.56-9.06-10.5-14.77-14.23-8.67-5.65-18.88-8.94-29.25-9.15-22.84-.82-41.89,16.09-52.19,35.11-1.06,2.06-2.29,4.57-3.17,6.72-.91,2.27-1.72,4.64-2.41,6.98-2.6,8.73-3.06,17.83-7.55,25.78-5.39,9.9-14.45,16.99-24.87,21.23-.23-1.56-.36-3.16-.36-4.79V31.82C0,14.25,14.24,0,31.81,0h128.75c17.57,0,31.81,14.25,31.81,31.82Z"/>
        <path class="cls-2" d="M191.23,87.83c.75-1.32,1.02-2.79,1.14-4.26v75.13c0,17.57-14.24,31.81-31.81,31.81H31.81c-15.77,0-28.85-11.47-31.37-26.51,15.18-2.67,28.73-12.78,34.73-27.17,3-7.19,4.45-14.6,7.74-21.5,7.02-15.19,22.42-31.86,39.44-34.86,13.14-2.31,27.49,2.47,37.3,11.48,3.16,2.83,5.62,6.11,8.17,9.65,1.22,1.64,2.28,3.09,4.07,4.57,4.9,4.05,11.63,2.68,15.67-1.86,2.68-2.91,4.19-5.95,5.73-9.29,2.57-5.82,4.41-11.69,6.62-17.47,1.55-3.76,2.94-7.68,5.58-10.4,1.32-1.32,2.47-.99,3.92.03,3.29,2.52,5.63,6.25,8.03,9.83,2.13,3.18,4.16,6.67,6.74,9.68,1.77,2.16,4.95,4.34,7.03,1.12Z"/>
      </g>
      <g>
        <path class="cls-1" d="M297.86,142.14c-14.97,0-26.91-3.2-35.81-9.59-8.91-6.39-13.77-15.27-14.6-26.63h23.97c.83,5.9,3.56,10.35,8.2,13.35,4.64,3,11.04,4.49,19.22,4.49,7.25,0,12.72-1.14,16.39-3.42,3.67-2.28,5.51-5.66,5.51-10.13,0-3.49-1.17-6.26-3.51-8.32-2.34-2.06-6.13-3.62-11.36-4.7l-23-4.56c-10.38-2.15-18.14-5.7-23.28-10.67-5.14-4.96-7.71-11.42-7.71-19.38,0-10.11,3.93-18.02,11.78-23.74,7.85-5.72,18.53-8.59,32.03-8.59s24.7,3,33.06,8.99c8.35,5.99,13.04,14.35,14.05,25.09h-23.97c-2.66-10.91-10.79-16.37-24.38-16.37-6.15,0-10.97,1.07-14.46,3.22-3.49,2.15-5.23,5.23-5.23,9.26,0,6.17,4.55,10.15,13.64,11.94l23.97,4.83c10.83,2.15,18.75,5.75,23.76,10.8,5,5.05,7.51,11.87,7.51,20.46,0,10.64-3.97,18.92-11.91,24.82-7.94,5.9-19.22,8.85-33.82,8.85Z"/>
        <path class="cls-1" d="M357.92,140.53V27.85h22.87v61.04h.55l32.51-28.84h27.27l-35.12,30.85,37.74,49.63h-26.72l-27.14-36.09-9.09,7.24v28.84h-22.87Z"/>
        <path class="cls-1" d="M463.29,52.13c-3.49,0-6.45-1.18-8.88-3.55-2.43-2.37-3.65-5.25-3.65-8.65s1.22-6.28,3.65-8.65c2.43-2.37,5.39-3.56,8.88-3.56s6.45,1.19,8.88,3.56c2.43,2.37,3.65,5.25,3.65,8.65s-1.22,6.28-3.65,8.65c-2.43,2.37-5.4,3.55-8.88,3.55ZM451.86,140.53V60.04h22.87v80.49h-22.87Z"/>
        <path class="cls-1" d="M493.73,140.53V27.85h22.87v112.68h-22.87Z"/>
        <path class="cls-1" d="M535.61,140.53V27.85h22.87v112.68h-22.87Z"/>
        <path class="cls-2" d="M616.74,174.33c-12.4,0-22.48-2.44-30.24-7.31-7.76-4.88-12.38-11.65-13.84-20.32h24.24c2.2,6.62,8.59,9.93,19.15,9.93,7.16,0,12.65-1.59,16.46-4.76,3.81-3.18,5.72-7.76,5.72-13.75v-10.73h-.69c-2.48,4.29-5.9,7.56-10.26,9.79-4.36,2.24-9.57,3.35-15.63,3.35-7.81,0-14.58-1.68-20.32-5.03-5.74-3.35-10.19-8.12-13.36-14.29s-4.75-13.42-4.75-21.73c0-12.52,3.56-22.49,10.67-29.92,7.12-7.42,16.87-11.13,29.27-11.13,6.98,0,12.92,1.3,17.84,3.89,4.91,2.59,8.84,6.22,11.78,10.87h5.79v-13.15h23.14v22h-11.29v56.34c0,11.45-3.77,20.3-11.29,26.56-7.53,6.26-18.32,9.39-32.37,9.39ZM617.29,121.21c6.34,0,11.29-1.7,14.88-5.1,3.58-3.4,5.37-8.05,5.37-13.95v-5.63c0-5.81-1.81-10.4-5.44-13.75-3.63-3.35-8.56-5.03-14.81-5.03-6.7,0-11.92,1.92-15.63,5.77-3.72,3.85-5.58,9.21-5.58,16.1s1.86,12.21,5.58,15.96c3.72,3.76,8.93,5.63,15.63,5.63Z"/>
        <path class="cls-2" d="M692.77,140.53v-58.49h-11.29v-22h23.14v15.83h5.79c2.2-5.63,5.69-9.84,10.47-12.61,4.77-2.77,10.15-4.16,16.12-4.16h7.02v19.32h-7.99c-7.16,0-12.42,1.97-15.77,5.9-3.35,3.94-5.03,9.12-5.03,15.56v40.65h-22.45Z"/>
        <path class="cls-2" d="M792.22,142.14c-9,0-16.83-1.72-23.49-5.16-6.66-3.44-11.83-8.32-15.5-14.62-3.67-6.3-5.51-13.7-5.51-22.2s1.81-15.87,5.44-22.13c3.63-6.26,8.82-11.09,15.57-14.49,6.75-3.4,14.62-5.1,23.62-5.1s16.78,1.7,23.35,5.1c6.56,3.4,11.66,8.23,15.29,14.49,3.63,6.26,5.44,13.68,5.44,22.27s-1.79,15.9-5.37,22.2c-3.58,6.3-8.7,11.16-15.36,14.55-6.66,3.4-14.49,5.1-23.49,5.1ZM792.22,122.82c6.89,0,12.17-2.03,15.84-6.1,3.67-4.07,5.51-9.59,5.51-16.57s-1.84-12.45-5.51-16.43c-3.67-3.98-8.95-5.97-15.84-5.97s-12.33,1.99-16.05,5.97c-3.72,3.98-5.58,9.46-5.58,16.43s1.86,12.5,5.58,16.57c3.72,4.07,9.07,6.1,16.05,6.1Z"/>
        <path class="cls-2" d="M890.02,142.14c-9,0-16.83-1.72-23.49-5.16-6.66-3.44-11.83-8.32-15.5-14.62-3.67-6.3-5.51-13.7-5.51-22.2s1.81-15.87,5.44-22.13c3.63-6.26,8.82-11.09,15.57-14.49,6.75-3.4,14.62-5.1,23.62-5.1s16.78,1.7,23.35,5.1c6.56,3.4,11.66,8.23,15.29,14.49,3.63,6.26,5.44,13.68,5.44,22.27s-1.79,15.9-5.37,22.2c-3.58,6.3-8.7,11.16-15.36,14.55-6.66,3.4-14.49,5.1-23.49,5.1ZM890.02,122.82c6.89,0,12.17-2.03,15.84-6.1,3.67-4.07,5.51-9.59,5.51-16.57s-1.84-12.45-5.51-16.43c-3.67-3.98-8.95-5.97-15.84-5.97s-12.33,1.99-16.05,5.97c-3.72,3.98-5.58,9.46-5.58,16.43s1.86,12.5,5.58,16.57c3.72,4.07,9.07,6.1,16.05,6.1Z"/>
      </g>
    </g>
  </g>
</svg>